<svg width="16" height="17" fill="none" xmlns="http://www.w3.org/2000/svg">
<path d="M8.00006 9.18664C8.65728 9.18664 9.19006 8.65386 9.19006 7.99664C9.19006 7.33942 8.65728 6.80664 8.00006 6.80664C7.34284 6.80664 6.81006 7.33942 6.81006 7.99664C6.81006 8.65386 7.34284 9.18664 8.00006 9.18664Z" fill="#111827"/>
<path d="M4.66799 10.3626L4.40466 10.2953C2.44866 9.80131 1.32666 8.96131 1.32666 7.99397C1.32666 7.02597 2.44933 6.18664 4.40466 5.69264L4.66799 5.62597L4.74199 5.88664C4.93969 6.5691 5.19298 7.23422 5.49933 7.8753L5.55599 7.99397L5.49933 8.11264C5.19266 8.75464 4.93866 9.41997 4.74199 10.1026L4.66799 10.3626ZM4.28333 6.29931C2.79733 6.71797 1.88466 7.35664 1.88466 7.99397C1.88466 8.62997 2.79666 9.26931 4.28333 9.68731C4.46533 9.10864 4.68533 8.54264 4.93999 7.99397C4.68348 7.44439 4.4641 6.87823 4.28333 6.29931ZM11.3313 10.3626L11.258 10.1013C11.0598 9.41871 10.8063 8.7534 10.5 8.11197L10.4433 7.99397L10.5 7.87464C10.8067 7.23397 11.0593 6.56797 11.258 5.88531L11.3313 5.62531L11.5947 5.69197C13.5513 6.18597 14.6727 7.02531 14.6727 7.99397C14.6727 8.96197 13.5507 9.80131 11.5947 10.2953L11.3313 10.3626ZM11.058 7.99397C11.3247 8.57131 11.5467 9.13931 11.716 9.68731C13.2027 9.26931 14.1153 8.62997 14.1153 7.99397C14.1153 7.35664 13.2033 6.71864 11.716 6.29931C11.5342 6.87805 11.3144 7.44417 11.058 7.99397Z" fill="#111827"/>
<path d="M4.27951 6.29669L4.20618 6.03669C3.65551 4.09802 3.82218 2.70935 4.66418 2.22535C5.48751 1.74869 6.81218 2.31202 8.19951 3.73535L8.38884 3.93002L8.19951 4.12402C7.70676 4.63648 7.2564 5.18806 6.85284 5.77335L6.77751 5.88135L6.64684 5.89202C5.93723 5.94775 5.23335 6.06124 4.54218 6.23135L4.27951 6.29669ZM5.33418 2.61069C5.18484 2.61069 5.05284 2.64335 4.94151 2.70735C4.38951 3.02535 4.29218 4.13269 4.67218 5.62735C5.26618 5.49602 5.86551 5.40202 6.46951 5.34935C6.81919 4.85339 7.20065 4.38062 7.61151 3.93402C6.74284 3.08935 5.92284 2.61069 5.33418 2.61069ZM10.6655 13.9334C9.87351 13.9334 8.85618 13.336 7.80018 12.252L7.61151 12.058L7.80018 11.8647C8.293 11.3514 8.74358 10.7992 9.14751 10.2134L9.22218 10.1067L9.35151 10.094C10.0614 10.0393 10.7655 9.92623 11.4568 9.75602L11.7202 9.68935L11.7942 9.95002C12.3422 11.8874 12.1762 13.278 11.3355 13.762C11.1314 13.8777 10.9001 13.9369 10.6655 13.9334ZM8.38884 12.0534C9.25684 12.898 10.0775 13.3774 10.6655 13.3774C10.8155 13.3774 10.9475 13.344 11.0582 13.2807C11.6108 12.962 11.7088 11.8527 11.3275 10.358C10.7342 10.49 10.1342 10.5847 9.52884 10.6374C9.18065 11.1341 8.79981 11.6071 8.38884 12.0534Z" fill="#111827"/>
<path d="M11.7198 6.29669L11.4565 6.23069C10.7652 6.06005 10.0611 5.94656 9.35118 5.89136L9.22184 5.88003L9.14718 5.77203C8.74381 5.18642 8.29319 4.6348 7.79984 4.12269L7.61118 3.92869L7.79984 3.73536C9.18651 2.31269 10.5105 1.74936 11.3352 2.22536C12.1765 2.71003 12.3438 4.09869 11.7938 6.03669L11.7198 6.29669ZM9.52851 5.34936C10.1645 5.40603 10.7672 5.50136 11.3272 5.62736C11.7078 4.13269 11.6105 3.02536 11.0578 2.70669C10.5085 2.38869 9.47451 2.87536 8.38851 3.93403C8.79918 4.38069 9.18051 4.85269 9.52851 5.34936ZM5.33384 13.9334C5.09926 13.9367 4.86802 13.8776 4.66384 13.762C3.82184 13.278 3.65518 11.888 4.20518 9.95003L4.27718 9.68936L4.54051 9.75603C5.18318 9.91803 5.89118 10.032 6.64584 10.094L6.77518 10.1067L6.85051 10.2134C7.25318 10.7987 7.70384 11.3514 8.19718 11.8647L8.38651 12.058L8.19718 12.252C7.14184 13.3367 6.12451 13.9334 5.33384 13.9334ZM4.67184 10.3587C4.29184 11.8534 4.38918 12.9627 4.94118 13.2814C5.49118 13.5947 6.52184 13.1114 7.61118 12.0534C7.20048 11.6066 6.81902 11.1339 6.46918 10.638C5.86457 10.5846 5.26416 10.4912 4.67184 10.3587Z" fill="#111827"/>
<path d="M7.99994 10.7086C7.54194 10.7086 7.07194 10.6893 6.59994 10.65L6.46928 10.6386L6.39394 10.5306C6.12778 10.1479 5.87735 9.75447 5.64327 9.35131C5.41093 8.94706 5.19498 8.53362 4.99594 8.11198L4.93994 7.99398L4.99594 7.87464C5.19527 7.45331 5.41061 7.03998 5.64327 6.63598C5.87461 6.23864 6.12727 5.84131 6.39394 5.45598L6.46928 5.34931L6.59994 5.33731C7.5312 5.25931 8.46735 5.25931 9.39861 5.33731L9.52794 5.34998L9.60327 5.45664C10.1365 6.22248 10.6048 7.03151 11.0033 7.87531L11.0586 7.99464L11.0033 8.11264C10.6059 8.95702 10.1375 9.76614 9.60327 10.5313L9.52794 10.6393L9.39861 10.6506C8.92794 10.6886 8.45727 10.7086 7.99994 10.7086ZM6.77728 10.106C7.60061 10.168 8.39928 10.168 9.22194 10.106C9.6812 9.43345 10.0895 8.72748 10.4433 7.99398C10.0907 7.25982 9.6824 6.55375 9.22194 5.88198C8.40826 5.81931 7.59096 5.81931 6.77728 5.88198C6.31643 6.55351 5.90811 7.2596 5.55594 7.99398C5.91053 8.72707 6.31875 9.43299 6.77728 10.106Z" fill="#111827"/>
</svg>
