<svg width="12" height="12" xmlns="http://www.w3.org/2000/svg">
<path d="M10.8267 0.5H1.17333C0.862146 0.5 0.563704 0.623619 0.343661 0.843661C0.123619 1.0637 0 1.36215 0 1.67333V11.3267C0 11.6379 0.123619 11.9363 0.343661 12.1563C0.563704 12.3764 0.862146 12.5 1.17333 12.5H10.8267C10.9808 12.5 11.1333 12.4697 11.2757 12.4107C11.418 12.3517 11.5474 12.2653 11.6563 12.1563C11.7653 12.0474 11.8517 11.918 11.9107 11.7757C11.9697 11.6333 12 11.4808 12 11.3267V1.67333C12 1.51925 11.9697 1.36667 11.9107 1.22432C11.8517 1.08196 11.7653 0.952615 11.6563 0.843661C11.5474 0.734707 11.418 0.64828 11.2757 0.589315C11.1333 0.530349 10.9808 0.5 10.8267 0.5ZM6.96 7.16667H5.46V11.46H4.26667V7.16667H2.76667V6.19333H6.96V7.16667ZM10.8267 10.6867C10.7302 10.8919 10.5746 11.0636 10.38 11.18C10.1752 11.306 9.94938 11.3941 9.71333 11.44C9.45016 11.4943 9.18205 11.5212 8.91333 11.52C8.63837 11.5198 8.36397 11.4952 8.09333 11.4467C7.8633 11.3996 7.63956 11.3257 7.42667 11.2267V10.0867L7.38667 10.0467H7.42667V10.0933C7.62719 10.2498 7.85254 10.3715 8.09333 10.4533C8.33379 10.5449 8.58939 10.5901 8.84667 10.5867C8.98111 10.589 9.11536 10.5756 9.24667 10.5467C9.3453 10.5236 9.43975 10.4854 9.52667 10.4333C9.59471 10.3919 9.65185 10.3347 9.69333 10.2667C9.73438 10.1892 9.75243 10.1016 9.74534 10.0142C9.73825 9.92676 9.70633 9.8432 9.65333 9.77333C9.59066 9.68547 9.51139 9.61073 9.42 9.55333C9.30903 9.4753 9.19069 9.40832 9.06667 9.35333L8.62 9.16667C8.26642 9.02104 7.95313 8.79237 7.70667 8.5C7.5004 8.25136 7.39143 7.93628 7.4 7.61333C7.39223 7.36799 7.44731 7.12474 7.56 6.90667C7.66754 6.71659 7.81826 6.55445 8 6.43333C8.20248 6.29862 8.42872 6.2036 8.66667 6.15333C8.9268 6.09346 9.19307 6.06437 9.46 6.06667C9.70307 6.06327 9.94603 6.07888 10.1867 6.11333C10.3869 6.14463 10.5834 6.196 10.7733 6.26667V7.36667C10.6856 7.30412 10.5918 7.25051 10.4933 7.20667C10.3873 7.16104 10.2782 7.12316 10.1667 7.09333C10.0598 7.06206 9.95055 7.03976 9.84 7.02667C9.738 7.01705 9.63533 7.01705 9.53333 7.02667C9.40772 7.02459 9.28232 7.03802 9.16 7.06667C9.05965 7.08771 8.96303 7.12366 8.87333 7.17333C8.80333 7.21458 8.74396 7.27167 8.7 7.34C8.66009 7.4064 8.63933 7.48254 8.64 7.56C8.63838 7.6427 8.6616 7.72398 8.70667 7.79333C8.76143 7.86905 8.82913 7.9345 8.90667 7.98667C9.00066 8.0615 9.10369 8.12421 9.21333 8.17333L9.63333 8.36C9.82645 8.43983 10.0136 8.53341 10.1933 8.64C10.3514 8.7265 10.4953 8.83666 10.62 8.96667C10.7422 9.0851 10.8377 9.2283 10.9 9.38667C10.9639 9.56866 10.9955 9.76045 10.9933 9.95333C10.9886 10.2023 10.9318 10.4476 10.8267 10.6733V10.6867Z" fill="#111827"/>
</svg>
